<svg xmlns="http://www.w3.org/2000/svg" viewBox="0 0 160 40" fill="none" role="img" aria-label="SvitPC">
  <defs>
    <linearGradient id="mark" x1="0" y1="0" x2="40" y2="40" gradientUnits="userSpaceOnUse">
      <stop stop-color="#0fa2f0"/>
      <stop offset="1" stop-color="#0d8fd6"/>
    </linearGradient>
  </defs>
  <rect width="40" height="40" rx="10" fill="url(#mark)"/>
  <path
    d="M26.5 14.2c0-2.9-2.4-4.8-6.8-4.8-3.9 0-6.4 1.5-6.9 3.9h-3.8c.7-4.6 4.5-7 10.7-7 6.6 0 10.6 2.7 10.6 7.1 0 3.3-1.9 5.4-6.3 6.2l-2.9.55c-3.5.7-4.6 1.7-4.6 3.5 0 2.2 2 3.6 5.9 3.6 4.1 0 6.6-1.7 7.1-4.4h3.8c-.6 5-4.6 7.6-10.9 7.6-6.7 0-10.7-3-10.7-7.7 0-3.6 2.1-6 6.7-6.9l2.9-.6c3.1-.6 4.1-1.5 4.1-3.1z"
    fill="#fff"/>
  <circle cx="31.5" cy="9.5" r="1.7" fill="#fff" fill-opacity=".85"/>
  <text x="50" y="28" font-family="'PT Sans', system-ui, sans-serif" font-size="22" font-weight="700" letter-spacing="-0.02em" fill="#050505">&#1057;&#1074;&#1110;&#1090;&#1055;&#1050;</text>
</svg>
