<svg xmlns="http://www.w3.org/2000/svg" viewBox="0 0 420 280" role="img" aria-hidden="true">
  <defs>
    <linearGradient id="box-top" x1="0%" y1="0%" x2="100%" y2="100%">
      <stop offset="0%" stop-color="#f5e6c8"/>
      <stop offset="100%" stop-color="#d4b483"/>
    </linearGradient>
    <linearGradient id="shield" x1="0%" y1="0%" x2="0%" y2="100%">
      <stop offset="0%" stop-color="#47bff7"/>
      <stop offset="100%" stop-color="#0fa2f0"/>
    </linearGradient>
  </defs>
  <ellipse cx="210" cy="250" rx="150" ry="18" fill="#000" opacity="0.08"/>
  <g transform="translate(40 40)">
    <polygon points="80,120 200,70 200,190 80,240" fill="#c9a66b"/>
    <polygon points="200,70 320,120 320,240 200,190" fill="#e8d4a8"/>
    <polygon points="80,120 200,70 320,120 200,170" fill="url(#box-top)"/>
    <rect x="145" y="118" width="110" height="34" rx="6" fill="#fff" opacity="0.92"/>
    <text x="200" y="140" text-anchor="middle" font-family="PT Sans, sans-serif" font-size="16" font-weight="700" fill="#0fa2f0">!"</text>
    <line x1="200" y1="70" x2="200" y2="30" stroke="#8b6914" stroke-width="3"/>
    <rect x="188" y="18" width="24" height="14" rx="2" fill="#0fa2f0"/>
  </g>
  <g transform="translate(260 50)">
    <path d="M80 20 L140 35 V95 C140 130 110 155 80 165 C50 155 20 130 20 95 V35 Z" fill="url(#shield)"/>
    <path d="M55 88 L72 105 L108 62" fill="none" stroke="#fff" stroke-width="10" stroke-linecap="round" stroke-linejoin="round"/>
  </g>
</svg>
